<?xml version="1.0" standalone="no"?>
<!DOCTYPE svg PUBLIC "-//W3C//DTD SVG 20010904//EN"
 "http://www.w3.org/TR/2001/REC-SVG-20010904/DTD/svg10.dtd">
<svg version="1.0" xmlns="http://www.w3.org/2000/svg"
 width="912.000000pt" height="912.000000pt" viewBox="0 0 912.000000 912.000000"
 preserveAspectRatio="xMidYMid meet">
<metadata>
Created by potrace 1.14, written by Peter Selinger 2001-2017
</metadata>
<g transform="translate(0.000000,912.000000) scale(0.100000,-0.100000)"
fill="#000000" stroke="none">
<path d="M4289 9116 c-2 -2 -50 -6 -107 -10 -56 -4 -108 -9 -115 -11 -6 -2
-41 -7 -77 -10 -96 -10 -101 -11 -150 -19 -52 -8 -61 -10 -115 -21 -22 -4 -47
-9 -55 -10 -15 -3 -152 -33 -180 -40 -205 -47 -494 -141 -675 -220 -16 -7 -59
-25 -95 -40 -467 -199 -973 -543 -1352 -918 -380 -377 -642 -735 -878 -1202
-159 -314 -304 -703 -365 -983 -2 -9 -13 -57 -24 -107 -21 -95 -27 -125 -36
-190 -3 -22 -8 -51 -10 -65 -16 -91 -33 -226 -42 -335 -15 -193 -8 -745 11
-865 3 -14 7 -49 10 -79 6 -50 19 -145 32 -221 24 -149 106 -473 167 -660 73
-224 250 -614 377 -835 49 -85 207 -331 230 -358 6 -6 46 -59 89 -117 355
-472 831 -892 1356 -1195 216 -124 590 -294 800 -363 200 -66 352 -107 535
-146 171 -37 407 -71 575 -84 189 -15 743 -7 855 12 14 3 52 7 85 11 33 3 69
8 80 11 11 2 36 6 55 8 129 16 403 77 575 128 986 291 1851 910 2443 1748 192
273 404 665 520 965 96 245 200 607 228 785 3 19 7 41 10 49 2 8 7 30 10 50 3
20 9 61 14 91 5 30 12 82 15 115 4 33 8 71 10 84 27 167 27 778 0 991 -2 19
-7 55 -10 80 -3 25 -10 72 -15 105 -5 33 -12 78 -15 100 -4 22 -16 83 -27 135
-11 52 -22 104 -24 115 -2 11 -21 85 -43 165 -167 608 -444 1153 -833 1642
-299 375 -681 722 -1082 983 -413 268 -890 477 -1356 595 -138 35 -386 85
-480 96 -36 4 -67 8 -70 9 -3 1 -39 5 -81 9 -41 4 -89 10 -105 12 -33 6 -660
15 -665 10z m-788 -1620 c31 -4 67 -9 80 -11 13 -3 36 -7 50 -10 79 -14 216
-62 304 -105 228 -111 410 -277 577 -527 l55 -82 59 82 c198 277 422 467 659
558 80 31 204 67 260 75 17 2 44 7 60 9 110 19 344 25 485 11 102 -9 251 -40
346 -72 441 -146 750 -521 863 -1046 11 -51 22 -111 25 -133 4 -22 9 -54 12
-72 3 -17 8 -46 11 -65 3 -18 7 -927 10 -2020 3 -1616 1 -1988 -9 -1989 -7 0
-359 -1 -783 -1 l-770 -1 -1 1755 c-1 966 -4 1797 -8 1847 -7 96 -27 174 -55
205 -40 46 -159 63 -233 32 -63 -27 -120 -124 -134 -228 -4 -29 -8 -850 -8
-1825 -1 -974 -4 -1775 -8 -1778 -8 -9 -1546 -10 -1554 -2 -4 3 -7 819 -8
1814 -2 1885 -2 1870 -44 1953 -38 73 -171 107 -253 64 -33 -17 -38 -21 -72
-60 -23 -27 -55 -119 -64 -186 -4 -29 -8 -848 -8 -1820 0 -1565 -2 -1768 -15
-1769 -20 -1 -1498 -1 -1530 0 l-25 1 1 1988 c1 1093 4 2001 7 2017 3 17 8 55
12 85 8 71 48 238 76 321 119 345 373 647 689 817 176 95 367 150 580 168 41
4 76 7 77 8 5 4 233 -3 284 -8z"/>
</g>
</svg>
